<svg xmlns="http://www.w3.org/2000/svg" viewBox="0 0 400 400"><defs><linearGradient id="g" x1="0" y1="0" x2="1" y2="1">
<stop offset="0" stop-color="#5ab0ff"/><stop offset="1" stop-color="#1a1a40"/></linearGradient>
<linearGradient id="bg" x1="0" y1="0" x2="0" y2="1"><stop offset="0" stop-color="#fafafa"/><stop offset="1" stop-color="#e9e9ee"/></linearGradient></defs>
<rect width="400" height="400" fill="url(#bg)"/>
<ellipse cx="200" cy="372" rx="90" ry="10" fill="#000" opacity=".12"/><rect x="125" y="30" width="150" height="335" rx="26" fill="#dcdfe3" stroke="#0002"/>
<rect x="135" y="80" width="130" height="230" fill="url(#g)"/>
<circle cx="200" cy="55" r="4" fill="#333"/><rect x="180" y="52" width="14" height="4" rx="2" fill="#555"/>
<circle cx="200" cy="337" r="15" fill="none" stroke="#0003" stroke-width="3"/><rect x="146" y="100" width="20" height="20" rx="5" fill="#fff" opacity=".75"/><rect x="176" y="100" width="20" height="20" rx="5" fill="#fff" opacity=".75"/><rect x="206" y="100" width="20" height="20" rx="5" fill="#fff" opacity=".75"/><rect x="236" y="100" width="20" height="20" rx="5" fill="#fff" opacity=".75"/><rect x="146" y="132" width="20" height="20" rx="5" fill="#fff" opacity=".75"/><rect x="176" y="132" width="20" height="20" rx="5" fill="#fff" opacity=".75"/><rect x="206" y="132" width="20" height="20" rx="5" fill="#fff" opacity=".75"/><rect x="236" y="132" width="20" height="20" rx="5" fill="#fff" opacity=".75"/><rect x="146" y="164" width="20" height="20" rx="5" fill="#fff" opacity=".75"/><rect x="176" y="164" width="20" height="20" rx="5" fill="#fff" opacity=".75"/><rect x="206" y="164" width="20" height="20" rx="5" fill="#fff" opacity=".75"/><rect x="236" y="164" width="20" height="20" rx="5" fill="#fff" opacity=".75"/><rect x="146" y="196" width="20" height="20" rx="5" fill="#fff" opacity=".75"/><rect x="176" y="196" width="20" height="20" rx="5" fill="#fff" opacity=".75"/><rect x="206" y="196" width="20" height="20" rx="5" fill="#fff" opacity=".75"/><rect x="236" y="196" width="20" height="20" rx="5" fill="#fff" opacity=".75"/><rect x="146" y="228" width="20" height="20" rx="5" fill="#fff" opacity=".75"/><rect x="176" y="228" width="20" height="20" rx="5" fill="#fff" opacity=".75"/><rect x="206" y="228" width="20" height="20" rx="5" fill="#fff" opacity=".75"/><rect x="236" y="228" width="20" height="20" rx="5" fill="#fff" opacity=".75"/></svg>